<svg xmlns="http://www.w3.org/2000/svg" width="1600" height="900" viewBox="0 0 1600 900" role="img" aria-labelledby="title desc">
  <title id="title">CoPress Nest command center hero</title>
  <desc id="desc">A dark editorial command center with publishing, billing, newsletter, and Nest lanes.</desc>
  <defs>
    <radialGradient id="glow" cx="50%" cy="45%" r="58%">
      <stop offset="0%" stop-color="#56b6c8" stop-opacity="0.85"/>
      <stop offset="45%" stop-color="#132a42" stop-opacity="0.72"/>
      <stop offset="100%" stop-color="#08111f"/>
    </radialGradient>
    <linearGradient id="gold" x1="0%" x2="100%">
      <stop offset="0%" stop-color="#fff1b8"/>
      <stop offset="45%" stop-color="#d7a84f"/>
      <stop offset="100%" stop-color="#8f6426"/>
    </linearGradient>
    <pattern id="grid" width="48" height="48" patternUnits="userSpaceOnUse">
      <path d="M48 0H0V48" fill="none" stroke="#ffffff" stroke-opacity="0.07"/>
    </pattern>
  </defs>
  <rect width="1600" height="900" fill="#08111f"/>
  <rect width="1600" height="900" fill="url(#grid)"/>
  <circle cx="800" cy="420" r="320" fill="url(#glow)" opacity="0.72"/>
  <circle cx="800" cy="420" r="230" fill="none" stroke="#56b6c8" stroke-opacity="0.45" stroke-width="2"/>
  <circle cx="800" cy="420" r="150" fill="none" stroke="#d7a84f" stroke-opacity="0.7" stroke-width="2"/>
  <path d="M480 420c115-115 525-115 640 0-115 115-525 115-640 0Z" fill="#0d1828" stroke="#56b6c8" stroke-opacity="0.55" stroke-width="4"/>
  <path d="M630 470c-50-120 65-230 170-230 105 0 220 110 170 230-95-52-245-52-340 0Z" fill="#101f32" stroke="url(#gold)" stroke-width="5"/>
  <g fill="#f7f1e3" opacity="0.92">
    <text x="800" y="394" font-family="Georgia, serif" font-size="74" font-weight="700" text-anchor="middle" letter-spacing="4">COPRESS</text>
    <text x="800" y="454" font-family="Arial, sans-serif" font-size="33" font-weight="700" text-anchor="middle" letter-spacing="8">THE NEST</text>
  </g>
  <g font-family="Arial, sans-serif" font-weight="700" font-size="20" fill="#f7f1e3">
    <g transform="translate(165 160)">
      <rect width="270" height="132" rx="16" fill="#111d2e" stroke="#d7a84f" stroke-opacity="0.65"/>
      <text x="24" y="42" fill="#d7a84f">EDITORIAL</text>
      <text x="24" y="77" font-size="17" fill="#a9bacd">Story queue, assignments,</text>
      <text x="24" y="102" font-size="17" fill="#a9bacd">daily publish handoff</text>
    </g>
    <g transform="translate(1165 160)">
      <rect width="270" height="132" rx="16" fill="#111d2e" stroke="#56b6c8" stroke-opacity="0.65"/>
      <text x="24" y="42" fill="#56b6c8">NEWSLETTER</text>
      <text x="24" y="77" font-size="17" fill="#a9bacd">Sendy copy, campaign</text>
      <text x="24" y="102" font-size="17" fill="#a9bacd">blocks, reader lists</text>
    </g>
    <g transform="translate(165 612)">
      <rect width="270" height="132" rx="16" fill="#111d2e" stroke="#c94c4c" stroke-opacity="0.65"/>
      <text x="24" y="42" fill="#c94c4c">BILLING</text>
      <text x="24" y="77" font-size="17" fill="#a9bacd">Invoice-manager launch</text>
      <text x="24" y="102" font-size="17" fill="#a9bacd">and placement menu</text>
    </g>
    <g transform="translate(1165 612)">
      <rect width="270" height="132" rx="16" fill="#111d2e" stroke="#d7a84f" stroke-opacity="0.65"/>
      <text x="24" y="42" fill="#d7a84f">CITY SITES</text>
      <text x="24" y="77" font-size="17" fill="#a9bacd">Directory intake, town</text>
      <text x="24" y="102" font-size="17" fill="#a9bacd">routes, sponsor kits</text>
    </g>
  </g>
  <g stroke="#56b6c8" stroke-opacity="0.35" stroke-width="3" fill="none">
    <path d="M435 226C560 268 610 330 675 395"/>
    <path d="M1165 226c-125 42-175 104-240 169"/>
    <path d="M435 678c125-42 175-104 240-169"/>
    <path d="M1165 678c-125-42-175-104-240-169"/>
  </g>
  <g fill="#d7a84f">
    <circle cx="435" cy="226" r="6"/><circle cx="1165" cy="226" r="6"/><circle cx="435" cy="678" r="6"/><circle cx="1165" cy="678" r="6"/>
    <circle cx="675" cy="395" r="6"/><circle cx="925" cy="395" r="6"/><circle cx="675" cy="509" r="6"/><circle cx="925" cy="509" r="6"/>
  </g>
  <text x="800" y="820" font-family="Arial, sans-serif" font-size="26" font-weight="700" fill="#a9bacd" text-anchor="middle" letter-spacing="3">CAMPAIGN KIT + CUSTOMER OPERATOR LINK + PRODUCTION KANBAN</text>
</svg>
